# xmcd
#
# Track frame offsets:
# 150
# 12519
# 23422
# 34421
# 45747
# 56704
# 68907
# 81176
# 91816
# 103700
#
# Disc length: 1615 seconds
#
#
# Revision: 0
# Processed by: cddbd v1.5.2PL0 Copyright (c) Steve Scherf et al.
# Submitted via: FreeRIP 2.942 
#
DISCID=7b064d0a
DTITLE=Wade Jacoby - The Bicycle Wreck
DYEAR=2004
DGENRE=Comedy
TTITLE0=Alone Tonight
TTITLE1=Bicycle Wreck
TTITLE2=Counting Drops Of Rain
TTITLE3=One Man's Opinion
TTITLE4=I Gave My Love A Cherry
TTITLE5=A Trip To Laredo
TTITLE6=Doubtful Heart
TTITLE7=Food Plan Boogie
TTITLE8=Who Ya Primpin Fer
TTITLE9=Civil War
EXTD=
EXTT0=
EXTT1=
EXTT2=
EXTT3=
EXTT4=
EXTT5=
EXTT6=
EXTT7=
EXTT8=
EXTT9=
PLAYORDER=
